# xmcd
#
# Track frame offsets: 
#        150
#        19753
#        40584
#        52154
#        71733
#        88380
#        105761
#        122124
#        141687
#        156795
#        182229
#        197627
#
# Disc length: 2844 seconds
#
# Revision: 0
# Processed by: cddbd v1.5.2PL0 Copyright (c) Steve Scherf et al.
# Submitted via: ExactAudioCopyFreeDBPlugin 1.0
#
DISCID=ad0b1a0c
DTITLE=David Baxter - Patina
DYEAR=2011
DGENRE=Country
TTITLE0=Time Won't Wait
TTITLE1=Step Lightly As You Go
TTITLE2=She's Drinkin' Again
TTITLE3=Magdalena
TTITLE4=River Moon
TTITLE5=The Sweetest Flower in Ontario
TTITLE6=Rockin' in The Cradle of the South
TTITLE7=Loneliness Takes Time
TTITLE8=Only A Dream
TTITLE9=Bow River Blues
TTITLE10=Charmain
TTITLE11=A Waltz of Our Own
EXTD=
EXTT0=
EXTT1=
EXTT2=
EXTT3=
EXTT4=
EXTT5=
EXTT6=
EXTT7=
EXTT8=
EXTT9=
EXTT10=
EXTT11=
PLAYORDER=
